<svg width="24" height="24" viewBox="0 0 24 24" fill="none" xmlns="http://www.w3.org/2000/svg">
<path d="M12.7029 15.8575L12.6282 15.7274C12.9584 15.5378 13.2764 15.5126 14.4935 15.5126H15.5033V14.5028C15.5033 13.7655 15.5111 13.3345 15.5686 13.0388C15.5982 12.8863 15.6417 12.7651 15.7059 12.6533C15.769 12.5433 15.8489 12.4482 15.9425 12.3466C16.0417 12.239 16.1344 12.1557 16.2436 12.087C16.3523 12.0186 16.4711 11.9685 16.6181 11.9205M12.7029 15.8575L16.6646 12.0631M12.7029 15.8575L12.6282 15.7274C12.4875 15.8082 12.3481 15.9302 12.2319 16.0629C12.116 16.1954 12.0153 16.3474 11.959 16.4933M12.7029 15.8575L12.8868 19.26M16.6181 11.9205L16.6646 12.0631M16.6181 11.9205C16.6181 11.9205 16.6181 11.9205 16.6181 11.9205L16.6646 12.0631M16.6181 11.9205C16.6987 11.8942 16.8144 11.8804 16.9624 11.8729C17.1143 11.8652 17.314 11.8636 17.5705 11.8672C18.0054 11.8733 18.2907 11.8895 18.5114 11.9597C18.7446 12.0338 18.8957 12.1643 19.074 12.3594L18.9633 12.4606M16.6646 12.0631C16.7848 12.0238 17.0576 12.01 17.5684 12.0172C18.4455 12.0295 18.6199 12.0849 18.9633 12.4606M18.9633 12.4606L19.074 12.3594C19.1609 12.4545 19.2366 12.5401 19.2958 12.6369C19.357 12.7372 19.3977 12.8444 19.4252 12.9831C19.4779 13.2483 19.4853 13.65 19.4942 14.3776L19.5082 15.5087L20.6393 15.5227C21.189 15.5294 21.5195 15.5361 21.735 15.5497C21.9525 15.5634 22.0649 15.5847 22.1738 15.6258L22.1738 15.6258C22.3405 15.6887 22.5173 15.8136 22.6664 15.9542C22.8156 16.095 22.951 16.2647 23.0249 16.4284L22.8882 16.4901L18.9633 12.4606ZM12.8868 19.26L12.8338 19.4004C12.6671 19.3374 12.4903 19.2126 12.3413 19.0719C12.1921 18.9312 12.0567 18.7614 11.9827 18.5978C11.9306 18.4824 11.8988 18.3969 11.883 18.2425C11.8684 18.0997 11.8669 17.8932 11.8669 17.5346C11.8669 16.8835 11.8772 16.7054 11.959 16.4933M12.8868 19.26L12.8338 19.4004C12.9428 19.4415 13.0552 19.4628 13.273 19.4765C13.4889 19.4901 13.8201 19.4967 14.3712 19.5035L15.5033 19.5175V20.5263C15.5033 21.7405 15.5286 22.0586 15.7181 22.3886L15.8482 22.3139L15.7182 22.3886C15.799 22.5294 15.9209 22.6687 16.0537 22.785C16.1861 22.9009 16.3381 23.0016 16.4841 23.0579M12.8868 19.26L22.8882 18.536L23.0249 18.5978C22.951 18.7614 22.8156 18.9312 22.6664 19.0719C22.5173 19.2126 22.3405 19.3374 22.1738 19.4004L22.1738 19.4004C22.0649 19.4414 21.9525 19.4628 21.735 19.4765C21.5195 19.4901 21.189 19.4967 20.6393 19.5035L19.5082 19.5175M11.959 16.4933L12.0989 16.5473M11.959 16.4933C11.959 16.4933 11.959 16.4934 11.959 16.4934L12.0989 16.5473M12.0989 16.5473C12.0292 16.7282 12.0169 16.8758 12.0169 17.5346C12.0169 18.2584 12.0236 18.3241 12.1194 18.536L12.0989 16.5473ZM16.4841 23.0579C16.4841 23.0579 16.4841 23.0579 16.4841 23.0579L16.5381 22.918L16.4841 23.0579ZM16.4841 23.0579C16.6961 23.1397 16.8743 23.15 17.5253 23.15C17.884 23.15 18.0905 23.1485 18.2333 23.1339C18.3877 23.1181 18.4732 23.0863 18.5885 23.0342C18.7522 22.9602 18.9219 22.8248 19.0627 22.6756C19.2033 22.5265 19.3282 22.3498 19.3911 22.1831L19.3911 22.183C19.4322 22.0742 19.4535 21.9618 19.4672 21.7443C19.4808 21.5288 19.4874 21.1982 19.4942 20.6485L19.5082 19.5175M19.5082 19.5175L19.3619 19.5193L19.36 19.3693L19.51 19.3711L19.5082 19.5175ZM18.622 16.677L18.622 16.677C18.5546 16.645 18.4737 16.605 18.4111 16.5257C18.3485 16.4465 18.3168 16.3455 18.2973 16.2174C18.2592 15.9668 18.2575 15.525 18.2575 14.7081V14.6884C18.2575 13.8724 18.2576 13.4899 18.2253 13.2923C18.2098 13.1972 18.1905 13.1737 18.1825 13.1656C18.1682 13.1512 18.1479 13.1411 18.0657 13.1068C18.0418 13.0967 17.9731 13.0828 17.8602 13.0728C17.7541 13.0634 17.6261 13.0586 17.4969 13.0588C17.3677 13.059 17.2401 13.0641 17.1349 13.0739C17.0223 13.0843 16.9559 13.0984 16.9344 13.1077C16.8558 13.142 16.837 13.152 16.8239 13.1659C16.8158 13.1745 16.7968 13.1993 16.7816 13.2953C16.7501 13.495 16.7501 13.8807 16.7501 14.7022V14.7081C16.7501 15.525 16.7484 15.9668 16.7103 16.2174C16.6908 16.3455 16.6591 16.4465 16.5965 16.5257C16.5339 16.605 16.4531 16.645 16.3856 16.677L16.3856 16.677C16.2936 16.7207 16.173 16.7373 15.9425 16.7469C15.7056 16.7568 15.327 16.7593 14.6989 16.7593H14.6792C13.8631 16.7593 13.4807 16.7593 13.283 16.7916C13.1879 16.8071 13.1645 16.8264 13.1563 16.8344C13.1419 16.8487 13.1318 16.869 13.0975 16.9511C13.0975 16.9511 13.0975 16.9511 13.0975 16.9512L18.622 16.677ZM18.622 16.677C18.7141 16.7207 18.8346 16.7373 19.0651 16.7469C19.302 16.7568 19.6806 16.7593 20.3088 16.7593H20.3285C21.1445 16.7593 21.5269 16.7593 21.7246 16.7916C21.8197 16.8071 21.8432 16.8264 21.8513 16.8344C21.8657 16.8487 21.8758 16.869 21.9101 16.9512C21.9207 16.9764 21.9348 17.0449 21.945 17.1557C21.9547 17.2602 21.9597 17.386 21.9597 17.5131C21.9597 17.6402 21.9547 17.766 21.945 17.8704C21.9348 17.9813 21.9207 18.0498 21.9101 18.075C21.8758 18.1571 21.8657 18.1775 21.8513 18.1917C21.8432 18.1998 21.8197 18.219 21.7246 18.2345C21.5269 18.2668 21.1445 18.2668 20.3285 18.2668H20.3088C19.4919 18.2668 19.0501 18.2685 18.7995 18.3066C18.6714 18.3261 18.5704 18.3578 18.4912 18.4204C18.4119 18.483 18.3719 18.5638 18.3399 18.6313L18.3399 18.6313M18.622 16.677L18.3399 18.6313M18.3399 18.6313C18.2962 18.7233 18.2796 18.8439 18.27 19.0744C18.2601 19.3113 18.2575 19.6899 18.2575 20.318V20.3377C18.2575 21.1538 18.2576 21.5362 18.2253 21.7339C18.2098 21.8289 18.1905 21.8524 18.1825 21.8606C18.1682 21.875 18.1479 21.8851 18.0657 21.9194L18.3399 18.6313ZM16.6677 18.6313L16.6677 18.6313C16.7114 18.7233 16.728 18.8439 16.7377 19.0744C16.7476 19.3113 16.7501 19.6899 16.7501 20.318V20.3378C16.7501 21.1538 16.7501 21.5362 16.7824 21.7339C16.7979 21.8289 16.8171 21.8524 16.8252 21.8606C16.8394 21.875 16.8598 21.8851 16.9419 21.9194C16.9419 21.9194 16.9419 21.9194 16.9419 21.9194L16.8841 22.0578C17.0792 22.1393 17.9284 22.1393 18.1236 22.0578L16.6677 18.6313ZM16.6677 18.6313C16.6357 18.5638 16.5957 18.483 16.5165 18.4204M16.6677 18.6313L16.5165 18.4204M16.5165 18.4204C16.4373 18.3578 16.3362 18.3261 16.2081 18.3066M16.5165 18.4204L16.2081 18.3066M16.2081 18.3066C15.9575 18.2685 15.5157 18.2668 14.6989 18.2668M16.2081 18.3066L14.6989 18.2668M14.6989 18.2668H14.6792M14.6989 18.2668H14.6792M14.6792 18.2668C13.8631 18.2668 13.4807 18.2668 13.283 18.2345M14.6792 18.2668L13.283 18.2345M13.283 18.2345C13.1879 18.219 13.1645 18.1998 13.1563 18.1917M13.283 18.2345L13.1563 18.1917M13.1563 18.1917C13.1419 18.1775 13.1318 18.1571 13.0975 18.075L13.1563 18.1917ZM10.4179 0.990327L10.4179 0.990324L4.52948 6.04955C4.52948 6.04955 4.52948 6.04955 4.52948 6.04955C4.76256 8.05453 6.09753 9.619 8.03882 10.1616C8.22715 10.2143 8.35665 10.2456 8.52832 10.2625C8.69567 10.279 8.90103 10.2816 9.24109 10.2817C9.67056 10.2819 9.9763 10.2664 10.2624 10.2109C10.5498 10.1552 10.8106 10.0605 11.152 9.91028C13.3018 8.96468 14.4458 6.52668 13.794 4.27739C13.327 2.66596 12.0328 1.40529 10.4179 0.990327ZM10.1059 2.16937L10.1424 2.02389L10.1059 2.16938C11.3868 2.49081 12.4257 3.58312 12.6897 4.88777C12.7346 5.10991 12.7514 5.41282 12.74 5.71879C12.7286 6.02496 12.6895 6.32193 12.6287 6.53274C12.2938 7.69438 11.3898 8.60306 10.209 8.96097C10.0391 9.01245 9.93541 9.03873 9.80862 9.05345C9.67838 9.06857 9.5203 9.07192 9.24115 9.07192C8.962 9.07192 8.80392 9.06857 8.67368 9.05345C8.54689 9.03873 8.4432 9.01245 8.27334 8.96097C7.31324 8.66998 6.53959 8.02566 6.10289 7.15717C5.86336 6.68075 5.77148 6.3179 5.74531 5.73353L5.74531 5.73352C5.69924 4.70557 6.00964 3.87997 6.71872 3.14276C7.60063 2.22587 8.87365 1.86011 10.1059 2.16937ZM4.36618 11.9207L4.36616 11.9207C3.46853 12.0836 2.73372 12.4758 2.07526 13.1416C1.50339 13.7197 1.13805 14.3709 0.930537 15.1793L1.07583 15.2166L0.930536 15.1793C0.892598 15.3271 0.873225 15.4744 0.862611 15.8303C0.852029 16.1851 0.85 16.7575 0.85 17.7595V20.0071V20.0692L0.893915 20.1131L1.01325 20.2325L1.13254 20.3518L1.17629 20.3956L1.23818 20.3958L5.50843 20.4086C7.45423 20.4145 8.52628 20.4162 9.12708 20.4083C9.42677 20.4043 9.61317 20.398 9.73339 20.3882C9.84979 20.3787 9.92383 20.365 9.98353 20.3337L9.98354 20.3336C10.3188 20.1578 10.4006 19.6939 10.1548 19.408L10.0509 19.2873L10.0064 19.2355L9.938 19.2351L5.92126 19.2136L2.05381 19.1929L2.05472 17.5132C2.05559 15.9203 2.06698 15.6585 2.1246 15.4314C2.36139 14.4983 2.99807 13.7335 3.86221 13.3417L3.86222 13.3417C3.89213 13.3282 3.91945 13.3156 3.9449 13.3039C4.05842 13.2516 4.13476 13.2164 4.23773 13.188C4.36281 13.1534 4.53051 13.1286 4.84205 13.1112C5.41196 13.0795 6.42875 13.0743 8.4754 13.0637C8.67302 13.0627 8.88025 13.0617 9.0976 13.0605C11.2469 13.0492 12.37 13.0424 12.9662 13.0288C13.2628 13.0221 13.4352 13.0135 13.5401 13.0009C13.6456 12.9882 13.7117 12.9687 13.7683 12.9175L13.6676 12.8063L13.7683 12.9175C13.9598 12.7442 14.0246 12.471 13.9252 12.2331L13.7868 12.2909L13.9252 12.2331C13.9197 12.2198 13.9152 12.2074 13.9097 12.1923L13.9075 12.1862C13.9015 12.1698 13.8935 12.1481 13.8831 12.1264C13.8594 12.0771 13.8237 12.0286 13.7613 11.9901C13.7049 11.9555 13.6353 11.9344 13.553 11.9192C13.4694 11.9039 13.3615 11.8927 13.2212 11.8843C12.7253 11.8545 11.7599 11.8556 9.84457 11.8577C9.60543 11.858 9.35148 11.8583 9.08179 11.8585C7.38583 11.86 6.27236 11.8641 5.55293 11.8733C4.84126 11.8824 4.501 11.8962 4.36618 11.9207Z" fill="#333333" stroke="#333333" stroke-width="0.3"/>
</svg>
