<svg width="24" height="24" viewBox="0 0 24 24" fill="none" xmlns="http://www.w3.org/2000/svg">
<path fill-rule="evenodd" clip-rule="evenodd" d="M7.99994 2C7.99994 1.44772 8.44766 1 8.99994 1H14.9999C15.5522 1 15.9999 1.44772 15.9999 2V5C15.9999 5.55228 15.5522 6 14.9999 6V9.09167C14.9999 9.48652 15.1168 9.87254 15.3358 10.2011L20.7591 18.3359C22.0882 20.3296 20.659 23 18.2629 23H5.73698C3.34089 23 1.91172 20.3296 3.24083 18.3359L8.66404 10.2011C8.88307 9.87254 8.99994 9.48652 8.99994 9.09167V6C8.44766 6 7.99994 5.55228 7.99994 5V2ZM10.9999 6V9.09167C10.9999 9.88137 10.7662 10.6534 10.3281 11.3105L7.53418 15.5014C8.19624 15.4208 8.795 15.4059 9.3515 15.4393C10.5096 15.5088 11.4367 15.7869 12.2593 16.0338L12.2873 16.0422C13.1244 16.2933 13.8561 16.5096 14.7682 16.5643C15.3956 16.6019 16.1323 16.5635 17.0505 16.3787L13.6717 11.3105C13.2337 10.6534 12.9999 9.88137 12.9999 9.09167V6H10.9999ZM18.2366 18.1577C16.8156 18.522 15.6619 18.6215 14.6484 18.5607C13.4903 18.4912 12.5632 18.2131 11.7406 17.9662L11.7126 17.9578C10.8755 17.7067 10.1438 17.4904 9.23172 17.4357C8.39407 17.3854 7.36164 17.4708 5.9624 17.8591L4.90493 19.4453C4.46189 20.1099 4.93828 21 5.73698 21H18.2629C19.0616 21 19.538 20.1099 19.095 19.4453L18.2366 18.1577ZM9.99994 4V3H13.9999V4H9.99994Z" fill="#333333"/>
</svg>
