<svg width="200" height="131" viewBox="0 0 200 131" fill="none" xmlns="http://www.w3.org/2000/svg">
<path d="M0 131V70H10.7637L31.7617 110.497L52.7597 70H63.5233V131H52.3185V94.5694L33.8791 131H29.6442L11.2048 94.5694V131H0Z" fill="#6C86E2"/>
<path d="M75.9061 131V70H117.373V80.7597H87.905V93.8069H112.079V104.567H87.905V120.24H117.373V131H75.9061Z" fill="#6C86E2"/>
<path d="M127.946 131V70H148.503C149.003 70 150.032 70.0141 151.591 70.0424C153.15 70.0706 154.649 70.1694 156.091 70.3389C161.208 70.9319 165.546 72.6405 169.104 75.4646C172.662 78.2887 175.368 81.8752 177.221 86.2243C179.074 90.5734 180 95.3319 180 100.5C180 105.668 179.074 110.427 177.221 114.776C175.368 119.125 172.662 122.711 169.104 125.535C165.546 128.359 161.208 130.068 156.091 130.661C154.649 130.831 153.15 130.929 151.591 130.958C150.032 130.986 149.003 131 148.503 131H127.946ZM140.121 120.156H148.503C149.297 120.156 150.37 120.141 151.723 120.113C153.076 120.057 154.297 119.93 155.385 119.732C158.149 119.195 160.399 117.953 162.134 116.004C163.899 114.056 165.193 111.712 166.016 108.972C166.869 106.233 167.295 103.409 167.295 100.5C167.295 97.45 166.854 94.5553 165.972 91.816C165.119 89.0766 163.81 86.7609 162.046 84.8687C160.281 82.9766 158.061 81.7764 155.385 81.2681C154.297 81.0421 153.076 80.915 151.723 80.8868C150.37 80.8586 149.297 80.8444 148.503 80.8444H140.121V120.156Z" fill="#6C86E2"/>
<path d="M0 53V0H9.97596V43.6514H32.7153V53H0Z" fill="#6C86E2"/>
<path d="M39.6849 53V0H49.6609V53H39.6849Z" fill="#6C86E2"/>
<path d="M60.6563 53V0H81.7819C85.5473 0 88.5915 0.760649 90.9143 2.28195C93.2371 3.7787 94.9365 5.66806 96.0123 7.95C97.0882 10.2319 97.6261 12.5384 97.6261 14.8694C97.6261 17.8384 96.9537 20.3044 95.6089 22.2674C94.2885 24.2303 92.4669 25.5431 90.1441 26.2056V24.3653C93.445 25.0523 95.9145 26.5859 97.5527 28.966C99.2154 31.3461 100.047 34.0083 100.047 36.9528C100.047 40.1181 99.4599 42.903 98.2862 45.3076C97.137 47.7123 95.3766 49.6016 93.0049 50.9757C90.6331 52.3252 87.6501 53 84.0558 53H60.6563ZM70.779 43.5778H83.0289C84.3737 43.5778 85.5718 43.2956 86.6232 42.7313C87.6746 42.1424 88.4937 41.3326 89.0805 40.3021C89.6918 39.247 89.9974 38.0079 89.9974 36.5847C89.9974 35.3333 89.7407 34.2169 89.2272 33.2354C88.7137 32.2539 87.9313 31.481 86.8799 30.9167C85.853 30.3278 84.5693 30.0333 83.0289 30.0333H70.779V43.5778ZM70.779 20.6847H81.6352C82.7599 20.6847 83.7624 20.4884 84.6427 20.0958C85.5229 19.7032 86.2197 19.1021 86.7332 18.2924C87.2467 17.4581 87.5034 16.3907 87.5034 15.0903C87.5034 13.4708 87.0022 12.109 85.9997 11.0049C84.9972 9.90069 83.5424 9.34861 81.6352 9.34861H70.779V20.6847Z" fill="#6C86E2"/>
<path d="M107.361 53V0H129.661C130.174 0 130.859 0.0245367 131.714 0.0736102C132.595 0.0981483 133.377 0.17176 134.062 0.294445C137.216 0.785185 139.795 1.82801 141.8 3.42291C143.83 5.01782 145.321 7.02986 146.275 9.45903C147.229 11.8637 147.705 14.5505 147.705 17.5194C147.705 21.9606 146.605 25.7639 144.404 28.9292C142.204 32.0699 138.756 34.0083 134.062 34.7444L129.661 35.0389H117.337V53H107.361ZM137.143 53L126.726 31.4319L136.996 29.4444L148.439 53H137.143ZM117.337 25.6903H129.22C129.734 25.6903 130.296 25.6657 130.908 25.6167C131.519 25.5676 132.081 25.4694 132.595 25.3222C133.939 24.9542 134.979 24.3407 135.712 23.4819C136.446 22.5986 136.947 21.6294 137.216 20.5743C137.509 19.4947 137.656 18.4764 137.656 17.5194C137.656 16.5625 137.509 15.5565 137.216 14.5014C136.947 13.4218 136.446 12.4525 135.712 11.5938C134.979 10.7104 133.939 10.0847 132.595 9.71667C132.081 9.56945 131.519 9.4713 130.908 9.42222C130.296 9.37315 129.734 9.34861 129.22 9.34861H117.337V25.6903Z" fill="#6C86E2"/>
<path d="M152.834 53L168.972 0H183.862L200 53H189.731L175.354 6.25694H177.261L163.104 53H152.834ZM162.517 41.9583V32.6097H190.391V41.9583H162.517Z" fill="#6C86E2"/>
</svg>
