<svg width="24" height="24" viewBox="0 0 24 24" fill="none" xmlns="http://www.w3.org/2000/svg">
<path d="M23 21V22C23.5523 22 24 21.5523 24 21H23ZM19 14C18.4477 14 18 14.4477 18 15C18 15.5523 18.4477 16 19 16V14ZM21 20C20.4477 20 20 20.4477 20 21C20 21.5523 20.4477 22 21 22V20ZM15.7507 9.90553C15.2159 10.0432 14.8939 10.5884 15.0316 11.1232C15.1692 11.6581 15.7144 11.9801 16.2493 11.8424L15.7507 9.90553ZM16.2493 2.15757C15.7144 2.01991 15.1692 2.3419 15.0316 2.87675C14.8939 3.4116 15.2159 3.95678 15.7507 4.09444L16.2493 2.15757ZM17 21V22C17.5523 22 18 21.5523 18 21H17ZM1 21H0C0 21.5523 0.447715 22 1 22L1 21ZM22 19V21H24V19H22ZM24 19C24 16.2386 21.7614 14 19 14V16C20.6569 16 22 17.3431 22 19H24ZM23 20H21V22H23V20ZM18 6.99999C18 8.3965 17.0449 9.57245 15.7507 9.90553L16.2493 11.8424C18.4056 11.2874 20 9.33116 20 6.99999H18ZM15.7507 4.09444C17.0449 4.42753 18 5.60348 18 6.99999H20C20 4.66882 18.4056 2.71257 16.2493 2.15757L15.7507 4.09444ZM12 7C12 8.65685 10.6569 10 9 10V12C11.7614 12 14 9.76142 14 7H12ZM9 10C7.34315 10 6 8.65685 6 7H4C4 9.76142 6.23858 12 9 12V10ZM6 7C6 5.34315 7.34315 4 9 4V2C6.23858 2 4 4.23858 4 7H6ZM9 4C10.6569 4 12 5.34315 12 7H14C14 4.23858 11.7614 2 9 2V4ZM5 16H13V14H5V16ZM16 19V21H18V19H16ZM2 21V19H0V21H2ZM13 16C14.6569 16 16 17.3431 16 19H18C18 16.2386 15.7614 14 13 14V16ZM5 14C2.23858 14 0 16.2386 0 19H2C2 17.3431 3.34315 16 5 16V14ZM17 20H1V22H17V20Z" fill="#333333"/>
</svg>
