<svg width="24" height="24" viewBox="0 0 24 24" fill="none" xmlns="http://www.w3.org/2000/svg">
<path fill-rule="evenodd" clip-rule="evenodd" d="M8 1C8.55228 1 9 1.44772 9 2V3H15V2C15 1.44772 15.4477 1 16 1C16.5523 1 17 1.44772 17 2V3H19C19.7957 3 20.5587 3.31607 21.1213 3.87868C21.6839 4.44129 22 5.20435 22 6V20C22 20.7957 21.6839 21.5587 21.1213 22.1213C20.5587 22.6839 19.7957 23 19 23H5C4.20435 23 3.44129 22.6839 2.87868 22.1213C2.31607 21.5587 2 20.7957 2 20V6C2 5.20435 2.31607 4.44129 2.87868 3.87868C3.44129 3.31607 4.20435 3 5 3H7V2C7 1.44772 7.44772 1 8 1ZM7 5H5C4.73478 5 4.48043 5.10536 4.29289 5.29289C4.10536 5.48043 4 5.73478 4 6V9H20V6C20 5.73478 19.8946 5.48043 19.7071 5.29289C19.5196 5.10536 19.2652 5 19 5H17V6C17 6.55228 16.5523 7 16 7C15.4477 7 15 6.55228 15 6V5H9V6C9 6.55228 8.55228 7 8 7C7.44772 7 7 6.55228 7 6V5ZM20 11H4V20C4 20.2652 4.10536 20.5196 4.29289 20.7071C4.48043 20.8946 4.73478 21 5 21H19C19.2652 21 19.5196 20.8946 19.7071 20.7071C19.8946 20.5196 20 20.2652 20 20V11Z" fill="#333333"/>
</svg>
